<svg xmlns="http://www.w3.org/2000/svg" xmlns:xlink="http://www.w3.org/1999/xlink" width="120" height="145" viewBox="0 0 120 145"><defs><path id="a" d="M0 .554h119.847V145H0z"/></defs><g fill="none" fill-rule="evenodd"><g transform="translate(0 -.554)"><mask id="b" fill="#fff"><use xlink:href="#a"/></mask><path fill="#FFC627" d="M119.847 86.154c0 41.473-42.776 58.846-42.776 58.846s-12.973-9.228-17.148-12.847C55.75 135.772 42.775 145 42.775 145S0 127.627 0 86.154v-60.64l24.852-14.976a17.064 17.064 0 0 1 15.691-1.054L51.04 3.07a17.026 17.026 0 0 1 17.822 0l10.496 6.413a17.064 17.064 0 0 1 15.722 1.079l24.768 15.105v60.486z" mask="url(#b)"/></g><path fill="#001F5B" d="M93.19 13.107a13.445 13.445 0 0 0-13.813-.123l-.175.103L66.97 5.614a13.409 13.409 0 0 0-14.039 0l-12.233 7.473-.179-.106a13.452 13.452 0 0 0-13.793.11L3.627 27.01V85.6c0 38.273 38.708 54.717 38.708 54.717s9.251-6.526 17.588-13.394c8.337 6.868 17.588 13.394 17.588 13.394s38.707-16.444 38.707-54.717V27.15L93.19 13.108z"/><path fill="#FFF" d="M53.943 31.003l-6.787-4.355 12.793-6.597 32.546 11.882-9.288-6.233 3.616-1.972 20.533 7.928-18.573-11.322a5.001 5.001 0 0 0-5.129-.045L79.11 22.95 62.556 12.838a4.998 4.998 0 0 0-5.213 0L40.79 22.95l-4.55-2.664a5 5 0 0 0-5.12.041l-18.576 11.28 21.124-5.143 20.276 4.54z"/><path fill="#6CB2E2" d="M86.823 23.728L83.207 25.7l9.288 6.233L59.95 20.052l-12.793 6.596 6.787 4.355-20.276-4.538-21.124 5.14c9.216 2.48 16.94 8.566 21.601 16.645C40.606 40.083 49.59 34 59.924 31.19c10.45 2.843 19.523 9.026 26 17.333 4.644-8.116 12.198-14.382 21.432-16.866l-20.533-7.93z"/><path fill="#FFF" d="M91.24 66.675v18.922c0 20.307-12.397 32.117-12.522 32.234l-.476.444-.518-.393c-.049-.038-4.979-3.788-9.87-8.551l-.553-.538.537-.553c7.707-7.94 11.615-14.23 11.615-18.691l-.035-8.925H65.41v8.11c0 5.335-4.74 10.096-4.942 10.296l-.544.539-.544-.54c-.202-.2-4.943-4.96-4.943-10.294V58.64c0-3.726 4.871-6.802 5.078-6.931l.41-.254.407.254c.208.129 5.078 3.205 5.078 6.93v11.01h13.961l-.02-9.488c0-11.536-17.102-18.486-19.427-19.377-2.325.89-19.428 7.84-19.428 19.375l-.102 29.392c0 4.46 3.908 10.749 11.616 18.689l.537.553-.553.538c-4.892 4.763-9.82 8.513-9.87 8.55l-.518.394-.476-.444c-.125-.117-12.522-11.927-12.522-32.234V66.675c0-18.187-12.822-24.531-16.515-25.98V85.6c0 15.918 8.11 27.297 14.913 34.04 6.435 6.378 12.951 9.936 14.603 10.785 1.74-1.246 9.623-6.977 17.803-14.207l.512-.452.511.452c8.217 7.262 16.07 12.967 17.803 14.207 1.651-.848 8.168-4.406 14.604-10.785 6.802-6.743 14.912-18.122 14.912-34.04V40.68c-3.726 1.407-16.515 7.578-16.515 25.995"/></g></svg>